<?xml version="1.0" encoding="UTF-8"?>
<svg width="64px" height="64px" viewBox="0 0 64 64" version="1.1" xmlns="http://www.w3.org/2000/svg" xmlns:xlink="http://www.w3.org/1999/xlink">
    <title>TYPO3 privacy - extension icon</title>
    <defs></defs>
    <g id="Page-1" stroke="none" stroke-width="1" fill="none" fill-rule="evenodd">
        <g id="Extension">
            <polygon id="Shape" fill="#79A548" fill-rule="nonzero" points="0 0 64 0 64 64 0 64"></polygon>
            <path d="M25.4415584,29.8831169 L38.9480519,29.8831169 L38.9480519,24.8181818 C38.9480519,22.953995 38.2885618,21.3624254 36.9695617,20.0434253 C35.6505616,18.7244252 34.058992,18.0649351 32.1948052,18.0649351 C30.3306184,18.0649351 28.7390488,18.7244252 27.4200487,20.0434253 C26.1010486,21.3624254 25.4415584,22.953995 25.4415584,24.8181818 L25.4415584,29.8831169 Z M47.3896104,32.4155844 L47.3896104,47.6103896 C47.3896104,48.3138563 47.1434007,48.9117941 46.650974,49.4042208 C46.1585473,49.8966475 45.5606096,50.1428571 44.8571429,50.1428571 L19.5324675,50.1428571 C18.8290008,50.1428571 18.2310631,49.8966475 17.7386364,49.4042208 C17.2462097,48.9117941 17,48.3138563 17,47.6103896 L17,32.4155844 C17,31.7121177 17.2462097,31.11418 17.7386364,30.6217532 C18.2310631,30.1293265 18.8290008,29.8831169 19.5324675,29.8831169 L20.3766234,29.8831169 L20.3766234,24.8181818 C20.3766234,21.5822349 21.5373261,18.803583 23.8587662,16.4821429 C26.1802064,14.1607027 28.9588583,13 32.1948052,13 C35.4307521,13 38.209404,14.1607027 40.5308442,16.4821429 C42.8522843,18.803583 44.012987,21.5822349 44.012987,24.8181818 L44.012987,29.8831169 L44.8571429,29.8831169 C45.5606096,29.8831169 46.1585473,30.1293265 46.650974,30.6217532 C47.1434007,31.11418 47.3896104,31.7121177 47.3896104,32.4155844 Z" id="" fill="#FFFFFF"></path>
        </g>
    </g>
</svg>